<?xml version="1.0" standalone="no"?>
<!DOCTYPE svg PUBLIC "-//W3C//DTD SVG 20010904//EN"
 "http://www.w3.org/TR/2001/REC-SVG-20010904/DTD/svg10.dtd">
<svg version="1.0" xmlns="http://www.w3.org/2000/svg"
 width="300.000000pt" height="300.000000pt" viewBox="0 0 300.000000 300.000000"
 preserveAspectRatio="xMidYMid meet">
<metadata>
Created by potrace 1.11, written by Peter Selinger 2001-2013
</metadata>
<g transform="translate(0.000000,300.000000) scale(0.100000,-0.100000)"
fill="#000000" stroke="none">
<path d="M1310 2834 c-41 -6 -88 -14 -105 -17 -55 -9 -218 -67 -293 -104 -248
-121 -473 -338 -604 -583 -68 -127 -124 -302 -145 -450 -10 -70 -9 -288 1
-360 27 -197 105 -404 214 -570 51 -76 72 -101 182 -211 245 -244 559 -377
910 -384 349 -8 663 107 927 340 70 61 165 167 199 220 10 17 21 32 24 35 13
11 57 89 97 171 46 96 85 216 109 335 22 108 26 327 8 434 -8 47 -17 96 -19
110 -2 14 -4 25 -5 25 -1 0 -3 7 -5 15 -9 48 -62 186 -100 262 -186 375 -548
648 -960 724 -112 21 -335 25 -435 8z"/>
</g>
</svg>
